name Walk7.mot
datacolumns 19
datarows 12
range 1.53000000 1.54100000
endheader

                time	   L_ground_force_vx	   L_ground_force_vy	   L_ground_force_vz	   L_ground_force_px	   L_ground_force_py	   L_ground_force_pz	   R_ground_force_vx	   R_ground_force_vy	   R_ground_force_vz	   R_ground_force_px	   R_ground_force_py	   R_ground_force_pz	   L_ground_torque_x	   L_ground_torque_y	   L_ground_torque_z	   R_ground_torque_x	   R_ground_torque_y	   R_ground_torque_z	
          1.53000000	         26.33415784	        630.52613665	         37.43863942	         -0.35012765	          0.00000000	         -0.04757474	          0.00000000	          0.00000000	          0.00000000	          0.00000000	          0.00000000	          0.00000000	          0.00000000	         -2.01976099	          0.00000000	          0.00000000	          0.00000000	          0.00000000	
          1.53100000	         26.41415894	        631.83580100	         37.60991708	         -0.34937731	          0.00000000	         -0.04767011	          0.00000000	          0.00000000	          0.00000000	          0.00000000	          0.00000000	          0.00000000	          0.00000000	         -2.03439978	          0.00000000	          0.00000000	          0.00000000	          0.00000000	
          1.53200000	         26.48067587	        633.13706524	         37.75687525	         -0.34860683	          0.00000000	         -0.04775606	          0.00000000	          0.00000000	          0.00000000	          0.00000000	          0.00000000	          0.00000000	          0.00000000	         -2.04110729	          0.00000000	          0.00000000	          0.00000000	          0.00000000	
          1.53300000	         26.51934653	        634.41687098	         37.88465049	         -0.34781071	          0.00000000	         -0.04783802	          0.00000000	          0.00000000	          0.00000000	          0.00000000	          0.00000000	          0.00000000	          0.00000000	         -2.04234566	          0.00000000	          0.00000000	          0.00000000	          0.00000000	
          1.53400000	         26.52919834	        635.70522946	         38.00256767	         -0.34700382	          0.00000000	         -0.04791233	          0.00000000	          0.00000000	          0.00000000	          0.00000000	          0.00000000	          0.00000000	          0.00000000	         -2.04288387	          0.00000000	          0.00000000	          0.00000000	          0.00000000	
          1.53500000	         26.52090078	        637.03335670	         38.12141458	         -0.34619349	          0.00000000	         -0.04795959	          0.00000000	          0.00000000	          0.00000000	          0.00000000	          0.00000000	          0.00000000	          0.00000000	         -2.04259903	          0.00000000	          0.00000000	          0.00000000	          0.00000000	
          1.53600000	         26.50547321	        638.39891048	         38.24784107	         -0.34536614	          0.00000000	         -0.04798436	          0.00000000	          0.00000000	          0.00000000	          0.00000000	          0.00000000	          0.00000000	          0.00000000	         -2.04262358	          0.00000000	          0.00000000	          0.00000000	          0.00000000	
          1.53700000	         26.48752293	        639.77336223	         38.38299560	         -0.34451488	          0.00000000	         -0.04802958	          0.00000000	          0.00000000	          0.00000000	          0.00000000	          0.00000000	          0.00000000	          0.00000000	         -2.04856898	          0.00000000	          0.00000000	          0.00000000	          0.00000000	
          1.53800000	         26.46257279	        641.13731952	         38.52883186	         -0.34365346	          0.00000000	         -0.04813050	          0.00000000	          0.00000000	          0.00000000	          0.00000000	          0.00000000	          0.00000000	          0.00000000	         -2.06258467	          0.00000000	          0.00000000	          0.00000000	          0.00000000	
          1.53900000	         26.42152848	        642.50824206	         38.69101092	         -0.34279628	          0.00000000	         -0.04828584	          0.00000000	          0.00000000	          0.00000000	          0.00000000	          0.00000000	          0.00000000	          0.00000000	         -2.08108545	          0.00000000	          0.00000000	          0.00000000	          0.00000000	
          1.54000000	         26.36313443	        643.92318588	         38.87286482	         -0.34195155	          0.00000000	         -0.04847867	          0.00000000	          0.00000000	          0.00000000	          0.00000000	          0.00000000	          0.00000000	          0.00000000	         -2.10125670	          0.00000000	          0.00000000	          0.00000000	          0.00000000	
          1.54100000	         26.29678978	        645.39157911	         39.07251411	         -0.34112782	          0.00000000	         -0.04868926	          0.00000000	          0.00000000	          0.00000000	          0.00000000	          0.00000000	          0.00000000	          0.00000000	         -2.12150176	          0.00000000	          0.00000000	          0.00000000	          0.00000000	
